# AST/ASF file generated using VICON BodyLanguage
# -----------------------------------------------
:version 1.10
:name VICON
:units
  mass 1.0
  length 0.45
  angle deg
:documentation
   .ast/.asf automatically generated from VICON data using
   VICON BodyBuilder and BodyLanguage model FoxedUp or BRILLIANT.MOD
:root
   order TX TY TZ RX RY RZ
   axis XYZ
   position 0 0 0  
   orientation 0 0 0 
:bonedata
  begin
     id 1 
     name lhipjoint
     direction 0.645893 -0.654526 0.392961 
     length 2.38111 
     axis 0 0 0  XYZ
  end
  begin
     id 2 
     name lfemur
     direction 0.34202 -0.939693 0  
     length 6.6822  
     axis 0 0 20  XYZ
    dof rx ry rz
    limits (-160.0 20.0)
           (-70.0 70.0)
           (-60.0 70.0)
  end
  begin
     id 3 
     name ltibia
     direction 0.34202 -0.939693 0   
     length 6.93904   
     axis 0 0 20   XYZ
    dof rx
    limits (-10.0 170.0)
  end
  begin
     id 4 
     name lfoot
     direction 0.0694967 -0.190941 0.979138   
     length 2.13616   
     axis -90 7.62852e-016 20   XYZ
    dof rx rz
    limits (-45.0 90.0)
           (-70.0 20.0)
  end
  begin
     id 5 
     name ltoes
     direction 1.535e-011 -4.2202e-011 1   
     length 1.07536   
     axis -90 7.62852e-016 20   XYZ
    dof rx
    limits (-90.0 20.0)
  end
  begin
     id 6 
     name rhipjoint
     direction -0.700219 -0.612087 0.367481   
     length 2.54621  
     axis 0 0 0  XYZ 
  end
  begin
     id 7 
     name rfemur
     direction -0.34202 -0.939693 0   
     length 6.55353   
     axis 0 0 -20   XYZ
    dof rx ry rz
    limits (-160.0 20.0)
           (-70.0 70.0)
           (-70.0 60.0)
  end
  begin
     id 8 
     name rtibia
     direction -0.34202 -0.939693 0   
     length 6.8736   
     axis 0 0 -20   XYZ
    dof rx
    limits (-10.0 170.0)
 end
 begin
     id 9 
     name rfoot
     direction -0.0679995 -0.186827 0.980037   
     length 2.1218  
     axis -90 -7.62852e-016 -20   XYZ
    dof rx rz
    limits (-45.0 90.0)
           (-20.0 70.0)
  end
  begin
     id 10 
     name rtoes
     direction -1.53589e-011 -4.21772e-011 1   
     length 1.06864   
     axis -90 -7.62852e-016 -20   XYZ
    dof rx
    limits (-90.0 20.0)
  end
  begin
     id 11 
     name lowerback
     direction -0.0416607 0.996347 -0.0745409   
     length 2.12205   
     axis 0 0 0   XYZ
    dof rx ry rz
    limits (-20.0 45.0)
           (-30.0 30.0)
           (-30.0 30.0)
  end
  begin
     id 12 
     name upperback
     direction -0.000153993 0.999276 -0.0380568   
     length 2.12759   
     axis 0 0 0   XYZ
    dof rx ry rz
    limits (-20.0 45.0)
           (-30.0 30.0)
           (-30.0 30.0)
  end
  begin
     id 13 
     name thorax
     direction 0.0187671 0.999821 -0.00241421   
     length 2.13704   
     axis 0 0 0   XYZ
    dof rx ry rz
    limits (-20.0 45.0)
           (-30.0 30.0)
           (-30.0 30.0)
  end
  begin
     id 14 
     name lowerneck
     direction 0.0268157 0.964865 0.261374   
     length 1.65253   
     axis 0 0 0   XYZ
    dof rx ry rz
    limits (-20.0 45.0)
           (-30.0 30.0)
           (-30.0 30.0)
  end
  begin
     id 15 
     name upperneck
     direction 0.00263774 0.939908 -0.341418   
     length 1.72375   
     axis 0 0 0   XYZ
    dof rx ry rz
    limits (-20.0 45.0)
           (-30.0 30.0)
           (-30.0 30.0)
  end
  begin
     id 16
     name head
     direction -0.00526001 0.989001 -0.147818  
     length 1.74878  
     axis 0 0 0   XYZ
    dof rx ry rz
    limits (-20.0 45.0)
           (-30.0 30.0)
           (-30.0 30.0)
  end
  begin
     id 17 
     name lclavicle
     direction 0.881214 0.461162 -0.103884  
     length 3.25108  
     axis 0 0 0   XYZ
    dof ry rz
    limits (-20.0 10.0)
           (0.0 20.0)
  end
  begin
     id 18 
     name lhumerus
     direction 1 -4.4899e-011 3.38092e-027   
     length 4.87408   
     axis 180 -30 -90   XYZ
    dof rx ry rz
    limits (-60.0 90.0)
           (-90.0 90.0)
           (-90.0 90.0)
  end
  begin
     id 19
     name lradius
     direction 1 -4.48931e-011 9.96288e-027   
     length 2.76729   
     axis 180 -30 -90   XYZ
    dof rx
    limits (-10.0 170.0)
  end
  begin
     id 20
     name lwrist
     direction 1 -4.4896e-011 1.50617e-026   
     length 1.38364   
     axis -9.31234e-015 90 90   XYZ
    dof ry
    limits (-180.0 0.0)
 end
  begin
     id 21 
     name lhand
     direction 1 -4.49038e-011 3.01286e-026   
     length 0.98922   
     axis -1.92217e-014 90 90   XYZ
    dof rx rz
    limits (-90.0 90.0)
           (-45.0 45.0)
  end
  begin
     id 22 
     name lfingers
     direction 1 -4.49051e-011 6.02588e-026   
     length 0.797535   
     axis -3.84436e-014 90 90   XYZ
    dof rx
    limits (0.0 90.0)
  end
  begin
     id 23
     name lthumb
     direction 0.707107 -6.34901e-011 0.707107   
     length 1.14511   
     axis -90 45 2.19363e-014   XYZ
    dof rx rz
    limits (-45.0 45.0)
           (-45.0 45.0)
  end
  begin
     id 24 
     name rclavicle
     direction -0.893894 0.441652 -0.0767889   
     length 3.29361  
     axis 0 0 0   XYZ 
    dof ry rz
    limits (-10.0 20.0)
           (-20.0 0.0)
  end
  begin
     id 25 
     name rhumerus
     direction -1 -4.48945e-011 8.0491e-028  
     length 4.71404   
     axis 180 30 90   XYZ
    dof rx ry rz
    limits (-90.0 60.0)
           (-90.0 90.0)
           (-90.0 90.0)
  end
  begin
     id 26 
     name rradius
     direction -1 -4.48986e-011 9.27795e-027   
     length 2.83468   
     axis 180 30 90   XYZ
    dof rx
    limits (-10.0 170.0)
  end
  begin
     id 27 
     name rwrist
     direction -1 -4.49029e-011 1.5064e-026   
     length 1.41734   
     axis -9.31234e-015 -90 -90   XYZ
    dof ry
    limits (-180.0 0.0)
  end
  begin
     id 28
     name rhand
     direction -1 -4.48857e-011 3.01165e-026   
     length 0.868195   
     axis -1.92217e-014 -90 -90   XYZ
    dof rx rz
    limits (-90.0 90.0)
           (-45.0 45.0)
  end
  begin
     id 29
     name rfingers
     direction -1 -4.49048e-011 6.02585e-026   
     length 0.699961   
     axis -3.84436e-014 -90 -90   XYZ
    dof rx
    limits (0.0 90.0)
  end
  begin
     id 30
     name rthumb
     direction -0.707107 -6.34854e-011 0.707107   
     length 1.00501   
     axis -90 -45 -2.19363e-014   XYZ
    dof rx rz
    limits (-45.0 45.0)
           (-45.0 45.0)
  end
:hierarchy
  begin
    root lhipjoint rhipjoint lowerback
    lhipjoint lfemur
    lfemur ltibia
    ltibia lfoot
    lfoot ltoes
    rhipjoint rfemur
    rfemur rtibia
    rtibia rfoot
    rfoot rtoes
    lowerback upperback
    upperback thorax
    thorax lowerneck lclavicle rclavicle
    lowerneck upperneck
    upperneck head
    lclavicle lhumerus
    lhumerus lradius
    lradius lwrist
    lwrist lhand lthumb
    lhand lfingers
    rclavicle rhumerus
    rhumerus rradius
    rradius rwrist
    rwrist rhand rthumb
    rhand rfingers
  end

#!OML:ASF H:\ManfredObstacles\Project 1\Capture day 2\Session 1\male.ASF
:FULLY-SPECIFIED
:DEGREES
158
root 1.74931 16.0441 1.97995 -165.817 -3.51741 179.477
lowerback -5.80125 0.723378 -4.98168
upperback 0.863524 1.32551 -0.567398
thorax 4.05376 0.539079 2.32838
lowerneck -37.3712 -2.40832 -1.79379
upperneck 37.1316 -5.66564 3.45231
head 21.5594 -2.17494 0.354602
rclavicle 1.45113e-014 9.93923e-015
rhumerus -40.2042 -28.0566 -67.8359
rradius 21.8234
rwrist 42.1733
rhand -2.21442 -8.45525
rfingers 7.12502
rthumb 23.4677 -37.044
lclavicle 1.45113e-014 9.93923e-015
lhumerus -92.0102 60.5633 -8.37512
lradius 11.3314
lwrist -122.687
lhand -3.21373 6.59776
lfingers 7.12502
lthumb 22.5088 35.3058
rfemur -19.666 5.60253 22.5226
rtibia 32.7874
rfoot -11.1958 -18.9211
rtoes -17.334
lfemur -17.7599 -9.24941 -21.2027
ltibia 32.8891
lfoot -2.39102 24.3397
ltoes 3.08761
159
root 1.74909 16.0295 1.96122 -165.787 -3.58681 179.479
lowerback -5.83323 0.748317 -4.93631
upperback 0.873954 1.35858 -0.600042
thorax 4.08186 0.555805 2.27276
lowerneck -37.2793 -2.42693 -1.6228
upperneck 36.8222 -5.61958 3.24369
head 21.3037 -2.15511 0.235878
rclavicle 8.44835e-015 -5.1684e-015
rhumerus -40.1573 -28.3888 -67.6489
rradius 21.5888
rwrist 42.3781
rhand -2.26152 -8.50123
rfingers 7.12502
rthumb 23.4225 -37.0957
lclavicle 8.44835e-015 -5.1684e-015
lhumerus -92.4693 60.6 -9.08632
lradius 11.4238
lwrist -123.13
lhand -3.1896 6.73136
lfingers 7.12502
lthumb 22.532 35.4366
rfemur -19.6094 5.6744 22.5446
rtibia 32.8249
rfoot -11.5006 -19.1503
rtoes -17.1702
lfemur -17.6565 -9.31562 -21.178
ltibia 32.7937
lfoot -2.63199 24.459
ltoes 2.8618
160
root 1.74989 16.0156 1.94171 -165.764 -3.68017 179.423
lowerback -5.84121 0.757664 -5.01547
upperback 0.859158 1.37638 -0.613489
thorax 4.06829 0.563123 2.3047
lowerneck -37.1659 -2.45535 -1.76848
upperneck 36.949 -5.71408 3.43718
head 21.3829 -2.19162 0.331893
rclavicle 4.37326e-015 1.82882e-014
rhumerus -40.2138 -28.3596 -67.5691
rradius 21.594
rwrist 42.5339
rhand -2.19739 -8.45999
rfingers 7.12502
rthumb 23.4841 -37.0466
lclavicle 4.37326e-015 1.82882e-014
lhumerus -96.3609 60.5913 -13.6695
lradius 11.4781
lwrist -125.528
lhand -3.67444 6.67384
lfingers 7.12502
lthumb 22.0666 35.4348
rfemur -19.5313 5.80253 22.5114
rtibia 32.8457
rfoot -11.8052 -19.444
rtoes -17.0191
lfemur -17.544 -9.3637 -21.2214
ltibia 32.7139
lfoot -2.92433 24.5498
ltoes 2.74158
161
root 1.75224 16.0008 1.92666 -165.75 -3.74358 179.431
lowerback -5.86773 0.777253 -5.05861
upperback 0.885051 1.40807 -0.603205
thorax 4.10672 0.576395 2.34317
lowerneck -36.9041 -2.4376 -1.57086
upperneck 36.8045 -5.73543 3.30223
head 21.2027 -2.19613 0.224998
rclavicle -1.3418e-014 1.59028e-014
rhumerus -40.0632 -28.5155 -67.4993
rradius 21.4184
rwrist 42.6482
rhand -2.22732 -8.46286
rfingers 7.12502
rthumb 23.4553 -37.0532
lclavicle -1.3418e-014 1.59028e-014
lhumerus -96.7949 60.6891 -14.2499
lradius 11.4548
lwrist -125.633
lhand -3.67864 6.98512
lfingers 7.12502
lthumb 22.0625 35.7466
rfemur -19.4585 5.97953 22.541
rtibia 32.8344
rfoot -12.0948 -19.687
rtoes -16.5532
lfemur -17.4851 -9.51863 -21.1743
ltibia 32.6662
lfoot -3.05237 24.7415
ltoes 2.63196
162
root 1.75213 15.9876 1.90437 -165.749 -3.78615 179.41
lowerback -5.92013 0.752853 -5.09347
upperback 0.911269 1.38191 -0.583284
thorax 4.16453 0.560588 2.38239
lowerneck -37.0613 -2.40768 -1.58709
upperneck 36.7223 -5.61901 3.27244
head 21.1821 -2.1499 0.247074
rclavicle 2.47487e-014 1.31198e-014
rhumerus -39.862 -28.8165 -67.309
rradius 21.0893
rwrist 43.2413
rhand -2.49218 -8.30788
rfingers 7.12502
rthumb 23.2013 -36.9304
lclavicle 2.47487e-014 1.31198e-014
lhumerus -96.4974 60.7818 -13.8793
lradius 11.4764
lwrist -125.149
lhand -3.72661 7.2713
lfingers 7.12502
lthumb 22.0165 36.0382
rfemur -19.3404 6.04155 22.5322
rtibia 32.8224
rfoot -12.7012 -19.7834
rtoes -16.6402
lfemur -17.3553 -9.51648 -21.2097
ltibia 32.6371
lfoot -3.2635 24.8902
ltoes 2.60251
